<mxfile host="app.diagrams.net" modified="2024-05-02T12:51:12.290Z" agent="Mozilla/5.0 (Windows NT 10.0; Win64; x64) AppleWebKit/537.36 (KHTML, like Gecko) Chrome/124.0.0.0 Safari/537.36" etag="EY2Vnumd8Fgi1h5pf0qZ" version="24.3.1" type="device">
  <diagram name="Page-1" id="YQMRDi5lgmCBV9C4RL03">
    <mxGraphModel dx="1588" dy="840" grid="1" gridSize="10" guides="1" tooltips="1" connect="1" arrows="1" fold="1" page="1" pageScale="1" pageWidth="1100" pageHeight="1700" math="0" shadow="0">
      <root>
        <mxCell id="0" />
        <mxCell id="1" parent="0" />
        <mxCell id="Uf7coefAtx5UJRbEC3l7-3" value="" style="edgeStyle=orthogonalEdgeStyle;rounded=0;orthogonalLoop=1;jettySize=auto;html=1;" parent="1" source="Uf7coefAtx5UJRbEC3l7-1" target="Uf7coefAtx5UJRbEC3l7-2" edge="1">
          <mxGeometry relative="1" as="geometry" />
        </mxCell>
        <mxCell id="Uf7coefAtx5UJRbEC3l7-1" value="Start" style="rounded=1;whiteSpace=wrap;html=1;" parent="1" vertex="1">
          <mxGeometry x="40" y="720" width="120" height="60" as="geometry" />
        </mxCell>
        <mxCell id="Uf7coefAtx5UJRbEC3l7-7" value="" style="edgeStyle=orthogonalEdgeStyle;rounded=0;orthogonalLoop=1;jettySize=auto;html=1;" parent="1" source="Uf7coefAtx5UJRbEC3l7-2" target="Uf7coefAtx5UJRbEC3l7-5" edge="1">
          <mxGeometry relative="1" as="geometry" />
        </mxCell>
        <mxCell id="Uf7coefAtx5UJRbEC3l7-2" value="Hello" style="rounded=1;whiteSpace=wrap;html=1;" parent="1" vertex="1">
          <mxGeometry x="200" y="720" width="120" height="60" as="geometry" />
        </mxCell>
        <mxCell id="Uf7coefAtx5UJRbEC3l7-9" value="&lt;font style=&quot;font-size: 29px;&quot;&gt;No&lt;/font&gt;" style="edgeStyle=orthogonalEdgeStyle;rounded=0;orthogonalLoop=1;jettySize=auto;html=1;" parent="1" source="Uf7coefAtx5UJRbEC3l7-5" target="Uf7coefAtx5UJRbEC3l7-8" edge="1">
          <mxGeometry x="-0.2" y="-30" relative="1" as="geometry">
            <Array as="points">
              <mxPoint x="580" y="750" />
              <mxPoint x="580" y="750" />
            </Array>
            <mxPoint as="offset" />
          </mxGeometry>
        </mxCell>
        <mxCell id="Uf7coefAtx5UJRbEC3l7-5" value="&lt;font style=&quot;font-size: 10px;&quot;&gt;Do we have a |Name| fot this user ?&lt;/font&gt;" style="rhombus;whiteSpace=wrap;html=1;" parent="1" vertex="1">
          <mxGeometry x="365" y="670" width="195" height="160" as="geometry" />
        </mxCell>
        <mxCell id="RQ_8uQADH-iQbaI-N57F-8" value="" style="edgeStyle=orthogonalEdgeStyle;rounded=0;orthogonalLoop=1;jettySize=auto;html=1;" edge="1" parent="1" source="Uf7coefAtx5UJRbEC3l7-8" target="RQ_8uQADH-iQbaI-N57F-2">
          <mxGeometry relative="1" as="geometry" />
        </mxCell>
        <mxCell id="Uf7coefAtx5UJRbEC3l7-8" value="What&#39;s you name?" style="rounded=1;whiteSpace=wrap;html=1;" parent="1" vertex="1">
          <mxGeometry x="610" y="720" width="120" height="60" as="geometry" />
        </mxCell>
        <mxCell id="RQ_8uQADH-iQbaI-N57F-1" value="" style="edgeStyle=orthogonalEdgeStyle;rounded=0;orthogonalLoop=1;jettySize=auto;html=1;" edge="1" parent="1" source="RQ_8uQADH-iQbaI-N57F-2" target="RQ_8uQADH-iQbaI-N57F-3">
          <mxGeometry relative="1" as="geometry" />
        </mxCell>
        <mxCell id="RQ_8uQADH-iQbaI-N57F-2" value="User Typed His Name" style="shape=hexagon;perimeter=hexagonPerimeter2;whiteSpace=wrap;html=1;fixedSize=1;" vertex="1" parent="1">
          <mxGeometry x="810" y="710" width="160" height="80" as="geometry" />
        </mxCell>
        <mxCell id="RQ_8uQADH-iQbaI-N57F-3" value="Save Value to |Name|" style="shape=process;whiteSpace=wrap;html=1;backgroundOutline=1;" vertex="1" parent="1">
          <mxGeometry x="830" y="830" width="120" height="60" as="geometry" />
        </mxCell>
        <mxCell id="RQ_8uQADH-iQbaI-N57F-4" style="edgeStyle=orthogonalEdgeStyle;rounded=0;orthogonalLoop=1;jettySize=auto;html=1;" edge="1" parent="1" source="RQ_8uQADH-iQbaI-N57F-5">
          <mxGeometry relative="1" as="geometry">
            <mxPoint x="899.9999999999998" y="1150" as="targetPoint" />
          </mxGeometry>
        </mxCell>
        <mxCell id="RQ_8uQADH-iQbaI-N57F-5" value="Nice to Meet You |Name|" style="rounded=1;whiteSpace=wrap;html=1;" vertex="1" parent="1">
          <mxGeometry x="840" y="980" width="120" height="80" as="geometry" />
        </mxCell>
        <mxCell id="RQ_8uQADH-iQbaI-N57F-6" value="End" style="rounded=1;whiteSpace=wrap;html=1;" vertex="1" parent="1">
          <mxGeometry x="850" y="1155" width="120" height="60" as="geometry" />
        </mxCell>
        <mxCell id="RQ_8uQADH-iQbaI-N57F-7" style="edgeStyle=orthogonalEdgeStyle;rounded=0;orthogonalLoop=1;jettySize=auto;html=1;entryX=0.413;entryY=-0.065;entryDx=0;entryDy=0;entryPerimeter=0;" edge="1" parent="1" source="RQ_8uQADH-iQbaI-N57F-3" target="RQ_8uQADH-iQbaI-N57F-5">
          <mxGeometry relative="1" as="geometry" />
        </mxCell>
        <mxCell id="RQ_8uQADH-iQbaI-N57F-9" value="&lt;font style=&quot;font-size: 29px;&quot;&gt;Ye&lt;span style=&quot;color: rgba(0, 0, 0, 0); font-family: monospace; font-size: 0px; text-align: start; background-color: rgb(251, 251, 251);&quot;&gt;%3CmxGraphModel%3E%3Croot%3E%3CmxCell%20id%3D%220%22%2F%3E%3CmxCell%20id%3D%221%22%20parent%3D%220%22%2F%3E%3CmxCell%20id%3D%222%22%20value%3D%22%22%20style%3D%22edgeStyle%3DorthogonalEdgeStyle%3Brounded%3D0%3BorthogonalLoop%3D1%3BjettySize%3Dauto%3Bhtml%3D1%3B%22%20edge%3D%221%22%20source%3D%223%22%20target%3D%224%22%20parent%3D%221%22%3E%3CmxGeometry%20relative%3D%221%22%20as%3D%22geometry%22%2F%3E%3C%2FmxCell%3E%3CmxCell%20id%3D%223%22%20value%3D%22User%20Typed%20His%20Name%22%20style%3D%22shape%3Dhexagon%3Bperimeter%3DhexagonPerimeter2%3BwhiteSpace%3Dwrap%3Bhtml%3D1%3BfixedSize%3D1%3B%22%20vertex%3D%221%22%20parent%3D%221%22%3E%3CmxGeometry%20x%3D%22520%22%20y%3D%2280%22%20width%3D%22160%22%20height%3D%2280%22%20as%3D%22geometry%22%2F%3E%3C%2FmxCell%3E%3CmxCell%20id%3D%224%22%20value%3D%22Save%20Value%20to%20%7CName%7C%22%20style%3D%22shape%3Dprocess%3BwhiteSpace%3Dwrap%3Bhtml%3D1%3BbackgroundOutline%3D1%3B%22%20vertex%3D%221%22%20parent%3D%221%22%3E%3CmxGeometry%20x%3D%22540%22%20y%3D%22200%22%20width%3D%22120%22%20height%3D%2260%22%20as%3D%22geometry%22%2F%3E%3C%2FmxCell%3E%3CmxCell%20id%3D%225%22%20style%3D%22edgeStyle%3DorthogonalEdgeStyle%3Brounded%3D0%3BorthogonalLoop%3D1%3BjettySize%3Dauto%3Bhtml%3D1%3B%22%20edge%3D%221%22%20source%3D%226%22%20parent%3D%221%22%3E%3CmxGeometry%20relative%3D%221%22%20as%3D%22geometry%22%3E%3CmxPoint%20x%3D%22609.9999999999998%22%20y%3D%22520%22%20as%3D%22targetPoint%22%2F%3E%3C%2FmxGeometry%3E%3C%2FmxCell%3E%3CmxCell%20id%3D%226%22%20value%3D%22Nice%20to%20Meet%20You%20%7CName%7C%22%20style%3D%22rounded%3D1%3BwhiteSpace%3Dwrap%3Bhtml%3D1%3B%22%20vertex%3D%221%22%20parent%3D%221%22%3E%3CmxGeometry%20x%3D%22550%22%20y%3D%22350%22%20width%3D%22120%22%20height%3D%2280%22%20as%3D%22geometry%22%2F%3E%3C%2FmxCell%3E%3CmxCell%20id%3D%227%22%20value%3D%22End%22%20style%3D%22rounded%3D1%3BwhiteSpace%3Dwrap%3Bhtml%3D1%3B%22%20vertex%3D%221%22%20parent%3D%221%22%3E%3CmxGeometry%20x%3D%22560%22%20y%3D%22525%22%20width%3D%22120%22%20height%3D%2260%22%20as%3D%22geometry%22%2F%3E%3C%2FmxCell%3E%3CmxCell%20id%3D%228%22%20style%3D%22edgeStyle%3DorthogonalEdgeStyle%3Brounded%3D0%3BorthogonalLoop%3D1%3BjettySize%3Dauto%3Bhtml%3D1%3BentryX%3D0.413%3BentryY%3D-0.065%3BentryDx%3D0%3BentryDy%3D0%3BentryPerimeter%3D0%3B%22%20edge%3D%221%22%20source%3D%224%22%20target%3D%226%22%20parent%3D%221%22%3E%3CmxGeometry%20relative%3D%221%22%20as%3D%22geometry%22%2F%3E%3C%2FmxCell%3E%3C%2Froot%3E%3C%2FmxGraphModel%3E&lt;/span&gt;s&lt;/font&gt;&lt;div&gt;&lt;font style=&quot;font-size: 29px;&quot;&gt;&lt;br&gt;&lt;/font&gt;&lt;/div&gt;" style="edgeStyle=orthogonalEdgeStyle;rounded=0;orthogonalLoop=1;jettySize=auto;entryX=0;entryY=0.5;entryDx=0;entryDy=0;html=1;" edge="1" parent="1" source="Uf7coefAtx5UJRbEC3l7-5" target="RQ_8uQADH-iQbaI-N57F-5">
          <mxGeometry x="-0.753" y="27" relative="1" as="geometry">
            <mxPoint x="520" y="1190" as="targetPoint" />
            <Array as="points">
              <mxPoint x="463" y="1020" />
            </Array>
            <mxPoint as="offset" />
          </mxGeometry>
        </mxCell>
      </root>
    </mxGraphModel>
  </diagram>
</mxfile>
